<?xml version="1.0" standalone="no"?>
<!DOCTYPE svg PUBLIC "-//W3C//DTD SVG 20010904//EN"
 "http://www.w3.org/TR/2001/REC-SVG-20010904/DTD/svg10.dtd">
<svg version="1.0" xmlns="http://www.w3.org/2000/svg"
 width="1024.000000pt" height="1024.000000pt" viewBox="0 0 1024.000000 1024.000000"
 preserveAspectRatio="xMidYMid meet">

<g transform="translate(0.000000,1024.000000) scale(0.100000,-0.100000)"
fill="#000000" stroke="none">
<path d="M3556 7444 c-185 -36 -334 -113 -470 -243 -141 -136 -230 -301 -266
-496 -8 -43 -10 -529 -8 -1670 l3 -1610 23 -75 c55 -177 166 -344 304 -459 88
-73 241 -152 358 -183 l85 -23 1545 0 1545 0 83 23 c356 97 614 380 677 739
13 73 15 303 15 1607 0 1413 -3 1632 -26 1722 -6 22 -7 22 -47 7 -65 -24 -239
-29 -317 -9 -112 28 -206 81 -285 160 -120 121 -175 255 -175 427 0 70 -3 88
-16 93 -9 3 -678 6 -1487 5 -1200 -1 -1485 -3 -1541 -15z m-147 -450 c12 -15
21 -34 21 -44 0 -34 -39 -70 -75 -70 -38 0 -75 37 -75 74 0 62 90 89 129 40z
m3661 -474 c37 -37 22 -100 -28 -118 -75 -26 -135 59 -82 116 27 29 83 29 110
2z m-2710 -329 c238 -31 458 -80 661 -147 l106 -36 141 46 c312 100 657 157
972 159 l185 2 3 -31 3 -31 -203 -6 c-344 -10 -649 -62 -977 -169 l-125 -40
-105 35 c-314 106 -647 164 -988 174 l-213 6 0 27 c0 15 3 30 8 35 12 13 369
-3 532 -24z m-534 -1213 l-1 -1032 30 -2 c17 -1 85 -5 152 -8 296 -14 800
-114 1052 -208 l53 -20 -36 -36 -35 -36 -109 12 c-72 8 -311 12 -725 12 l-617
0 -4 23 c-3 12 -4 515 -3 1117 l2 1095 68 3 67 3 0 44 c0 42 2 45 33 54 17 5
41 10 53 10 l21 1 -1 -1032z m2702 1010 c6 -6 12 -28 12 -49 l0 -38 63 -3 62
-3 1 -1094 c0 -601 -1 -1104 -4 -1117 l-4 -23 -677 -5 c-372 -2 -697 -7 -723
-11 -43 -6 -49 -5 -84 28 l-38 35 129 41 c296 97 670 170 955 186 58 3 128 8
156 11 l50 5 -4 1031 -4 1031 48 -8 c27 -4 55 -12 62 -17z m-1284 -484 c3 -9
6 -65 6 -125 l0 -108 133 -3 132 -3 0 -115 0 -115 -132 -3 -133 -3 -2 -312
c-2 -389 -3 -411 -12 -425 -10 -17 -208 -16 -224 0 -9 9 -12 106 -12 375 l0
362 -132 3 -133 3 0 115 0 115 133 3 132 3 0 108 c0 60 3 116 6 125 5 13 25
16 119 16 94 0 114 -3 119 -16z m-1117 -1330 c15 -24 15 -29 2 -53 -26 -46
-109 -33 -109 18 0 58 75 83 107 35z m2087 4 c21 -30 20 -51 -3 -72 -27 -25
-72 -17 -90 15 -13 24 -13 29 2 53 22 34 69 36 91 4z m-1272 -631 c49 -49 99
-67 184 -67 87 0 130 16 180 66 l45 44 674 0 c599 0 675 -2 689 -16 19 -19 20
-36 4 -52 -9 -9 -172 -12 -670 -12 l-658 0 -44 -34 c-68 -52 -128 -71 -221
-71 -93 0 -153 19 -221 71 l-44 34 -662 2 -663 3 -3 23 c-8 54 -34 52 694 52
l673 0 43 -43z"/>
<path d="M3657 5834 c-4 -4 -7 -479 -7 -1056 0 -1123 -3 -1050 45 -1050 423 0
817 3 813 7 -18 19 -411 64 -620 72 l-168 6 -1 566 c0 311 -3 766 -5 1011 l-5
445 -22 3 c-13 2 -26 0 -30 -4z"/>
<path d="M6537 5834 c-4 -4 -7 -461 -7 -1016 l0 -1008 -94 0 c-173 0 -570 -41
-661 -69 -19 -6 124 -10 398 -10 l427 -1 -2 1053 -3 1052 -25 3 c-14 2 -29 0
-33 -4z"/>
<path d="M5070 5354 c0 -58 -5 -114 -10 -125 -10 -17 -22 -19 -140 -19 l-130
0 0 -55 0 -55 124 0 c101 0 128 -3 141 -16 14 -14 15 -59 14 -377 l-1 -362 56
-3 56 -3 0 370 c0 356 1 371 19 381 11 5 74 10 140 10 l121 0 0 55 0 54 -137
3 -138 3 -3 123 -3 122 -54 0 -55 0 0 -106z"/>
<path d="M2504 5220 c-45 -18 -48 -96 -5 -119 74 -40 141 56 75 108 -29 23
-38 24 -70 11z"/>
</g>
</svg>
